# xmcd
#
# Track frame offsets:
#	150
#	37931
#	57037
#	87514
#	113820
#	127277
#	150772
#
# Disc length: 2268 seconds
#
# Revision: 0
# Processed by: cddbd v1.5.2PL0 Copyright (c) Steve Scherf et al.
# Submitted via: EZCDAudioConverter 6.0.8.1
#
DISCID=4f08da07
DTITLE=justin johnson - dirvin' it down disk 2 
DYEAR=2017
DGENRE=blues
TTITLE0=rumblestrippin'
TTITLE1=johnny b. goode
TTITLE2=ghost riders in the sky
TTITLE3=got the chick'n
TTITLE4=rollin'
TTITLE5=bootleg turn
TTITLE6=crankin'it up
EXTD=
EXTT0=
EXTT1=
EXTT2=
EXTT3=
EXTT4=
EXTT5=
EXTT6=
PLAYORDER=
